<?xml version="1.0" standalone="no"?>
<!DOCTYPE svg PUBLIC "-//W3C//DTD SVG 20010904//EN"
 "http://www.w3.org/TR/2001/REC-SVG-20010904/DTD/svg10.dtd">
<svg version="1.0" xmlns="http://www.w3.org/2000/svg"
 width="100.000000pt" height="100.000000pt" viewBox="0 0 100.000000 100.000000"
 preserveAspectRatio="xMidYMid meet">

<g transform="translate(0.000000,100.000000) scale(0.100000,-0.100000)"
fill="#000000" stroke="none">
<path d="M219 723 c-13 -15 -12 -15 7 -3 31 19 56 6 52 -27 -4 -34 -31 -42
-61 -16 l-21 18 18 -29 c18 -28 18 -29 -5 -52 -22 -20 -26 -21 -43 -9 -19 15
-19 15 5 42 23 27 23 27 -8 -1 -32 -29 -32 -30 -13 -43 11 -8 20 -25 20 -39 0
-20 -5 -24 -28 -24 -20 0 -32 7 -40 23 l-11 22 0 -24 c-1 -21 -5 -23 -46 -19
-25 2 -45 0 -45 -3 0 -4 35 -9 78 -12 79 -5 102 2 102 32 0 9 18 34 39 55 33
32 48 40 90 44 39 3 51 8 50 21 0 9 -3 11 -5 5 -6 -15 -54 -5 -54 11 0 16 -33
45 -52 45 -9 0 -22 -7 -29 -17z"/>
<path d="M360 710 c-11 -8 -7 -9 15 -4 37 8 45 14 19 14 -10 0 -26 -5 -34 -10z"/>
<path d="M234 699 c-10 -17 13 -36 27 -22 12 12 4 33 -11 33 -5 0 -12 -5 -16
-11z"/>
<path d="M418 678 c-2 -15 -11 -24 -25 -26 -13 -2 -23 -7 -23 -12 0 -5 7 -7
15 -4 11 5 15 -1 15 -21 0 -19 -4 -26 -14 -22 -19 7 -45 -22 -29 -31 6 -4 10
-19 10 -34 -1 -14 -5 -24 -9 -22 -14 9 -18 -16 -6 -36 15 -24 33 -27 20 -3 -7
12 -5 24 5 40 16 24 16 24 30 3 9 -12 12 -29 8 -43 l-7 -22 22 22 23 21 -22
30 c-20 29 -20 31 -4 40 14 9 15 13 4 26 -10 11 -12 31 -7 66 4 28 5 50 2 50
-3 0 -6 -10 -8 -22z m-10 -105 c-10 -2 -26 -2 -35 0 -10 3 -2 5 17 5 19 0 27
-2 18 -5z"/>
<path d="M124 579 c-10 -17 13 -36 27 -22 12 12 4 33 -11 33 -5 0 -12 -5 -16
-11z m26 -9 c0 -5 -4 -10 -10 -10 -5 0 -10 5 -10 10 0 6 5 10 10 10 6 0 10 -4
10 -10z"/>
<path d="M608 563 c7 -3 16 -2 19 1 4 3 -2 6 -13 5 -11 0 -14 -3 -6 -6z"/>
<path d="M523 510 c0 -25 2 -35 4 -22 2 12 2 32 0 45 -2 12 -4 2 -4 -23z"/>
<path d="M693 505 c0 -22 2 -30 4 -17 2 12 2 30 0 40 -3 9 -5 -1 -4 -23z"/>
<path d="M711 440 c-38 -32 -55 -135 -23 -147 9 -4 22 -13 27 -20 7 -10 9 0 7
32 -2 25 1 51 6 58 14 16 96 15 116 -2 22 -19 22 -81 -1 -81 -11 0 -14 -3 -7
-10 27 -27 85 38 69 78 -6 15 -8 15 -15 -3 -6 -13 -7 -3 -3 26 5 43 3 48 -25
67 -40 29 -117 30 -151 2z m-24 -112 c-3 -7 -5 -2 -5 12 0 14 2 19 5 13 2 -7
2 -19 0 -25z"/>
<path d="M661 434 c0 -11 3 -14 6 -6 3 7 2 16 -1 19 -3 4 -6 -2 -5 -13z"/>
<path d="M255 430 c6 -10 1 -12 -19 -8 -27 5 -31 1 -18 -18 4 -7 15 -8 30 -3
24 9 29 24 10 35 -7 5 -8 3 -3 -6z"/>
<path d="M373 405 c5 -13 49 -13 54 1 2 7 -8 11 -27 10 -16 -1 -28 -5 -27 -11z"/>
<path d="M201 368 c-1 -15 -11 -18 -64 -18 -41 0 -70 -5 -83 -15 -19 -15 -19
-15 1 -8 18 6 18 5 6 -10 -7 -9 -11 -27 -8 -38 3 -12 2 -18 -3 -13 -4 5 -10
18 -13 29 -4 18 -5 18 -6 -3 0 -12 8 -30 19 -39 11 -10 20 -23 20 -29 0 -6 9
-14 21 -17 28 -7 16 -24 -24 -36 -22 -6 56 -9 238 -9 149 0 261 3 250 5 -35 9
-63 43 -35 43 17 0 70 59 70 78 0 10 -7 27 -16 38 -14 18 -14 18 -3 -6 12 -24
11 -25 -8 -7 -17 15 -47 17 -259 19 l-239 2 245 6 c135 3 219 7 188 8 -48 2
-58 5 -58 20 -1 16 -1 16 -11 0 -5 -10 -21 -18 -34 -18 -14 0 -25 7 -28 18 -4
16 -5 16 -6 0 -1 -24 -81 -26 -81 -3 0 8 -4 15 -10 15 -5 0 -9 -6 -7 -12 1 -7
-10 -14 -25 -16 -19 -2 -28 2 -31 15 -4 17 -5 17 -6 1z m351 -65 c9 -10 9 -16
-1 -25 -10 -11 -12 -10 -9 1 2 7 -3 16 -11 19 -10 3 -12 0 -8 -11 4 -12 -1
-15 -26 -15 -18 0 -34 0 -37 -1 -19 -6 -113 -5 -117 1 -2 5 -8 6 -13 3 -9 -5
-131 -9 -155 -5 -5 1 -25 2 -43 2 -24 0 -32 4 -28 14 3 8 -1 14 -9 14 -8 0
-15 -8 -15 -17 0 -13 -3 -14 -12 -5 -8 8 -8 15 0 25 16 19 465 18 484 0z
m-129 -80 c-62 -2 -164 -2 -225 0 -62 1 -12 3 112 3 124 0 174 -2 113 -3z m37
-27 c0 -22 -24 -26 -154 -26 -116 0 -146 7 -146 32 0 4 68 8 150 8 122 0 150
-3 150 -14z"/>
<path d="M185 290 c-3 -5 -1 -10 4 -10 6 0 11 5 11 10 0 6 -2 10 -4 10 -3 0
-8 -4 -11 -10z"/>
<path d="M260 288 c0 -4 4 -8 9 -8 6 0 12 4 15 8 3 5 -1 9 -9 9 -8 0 -15 -4
-15 -9z"/>
<path d="M355 290 c-3 -5 -1 -10 4 -10 6 0 11 5 11 10 0 6 -2 10 -4 10 -3 0
-8 -4 -11 -10z"/>
<path d="M430 290 c0 -5 5 -10 11 -10 5 0 7 5 4 10 -3 6 -8 10 -11 10 -2 0 -4
-4 -4 -10z"/>
<path d="M228 363 c7 -3 16 -2 19 1 4 3 -2 6 -13 5 -11 0 -14 -3 -6 -6z"/>
<path d="M746 335 c4 -8 8 -15 10 -15 2 0 4 7 4 15 0 8 -4 15 -10 15 -5 0 -7
-7 -4 -15z"/>
<path d="M821 334 c0 -11 3 -14 6 -6 3 7 2 16 -1 19 -3 4 -6 -2 -5 -13z"/>
<path d="M770 275 c0 -11 7 -15 23 -13 12 2 22 8 22 13 0 6 -10 11 -22 13 -16
2 -23 -2 -23 -13z"/>
<path d="M701 224 c-17 -14 -31 -34 -31 -45 0 -18 8 -19 115 -19 106 0 115 1
115 19 0 38 -72 89 -76 54 -1 -7 -3 -15 -4 -18 -1 -3 -3 -10 -4 -17 0 -6 -7
-13 -13 -15 -9 -3 -11 4 -7 26 5 25 3 31 -11 31 -13 0 -15 -6 -10 -30 4 -18 3
-30 -4 -30 -5 0 -13 16 -17 35 -8 42 -13 43 -53 9z"/>
</g>
</svg>
